# xmcd
#
# Track frame offsets:
#	150
#	13220
#	25573
#	40777
#	55966
#	71588
#	83074
#	100278
#	115794
#	127582
#	146044
#	159418
#
# Disc length: 2281 seconds
#
# Revision: 2
# Processed by: cddbd v1.5.2PL0 Copyright (c) Steve Scherf et al.
# Submitted via: audiograbber 1.83.01
#
DISCID=9208e70c
DTITLE=KENNY ROGERS - KENNY ROGERS
DYEAR=1997
DGENRE=Country
TTITLE0=Ruby
TTITLE1=Ruben James
TTITLE2=Just Dropped in me
TTITLE3=For The Good Times
TTITLE4=Tuka Turnaround
TTITLE5=Me And Bobby McGhee
TTITLE6=Somethings Burning
TTITLE7=My Washington Woman
TTITLE8=Elvira
TTITLE9=The King Of Oak Street
TTITLE10=Shine On Ruby Mountain
TTITLE11=Poem For A Little Lady
EXTD=
EXTT0=
EXTT1=
EXTT2=
EXTT3=
EXTT4=
EXTT5=
EXTT6=
EXTT7=
EXTT8=
EXTT9=
EXTT10=
EXTT11=
PLAYORDER=
